<svg viewBox="0 0 920 820" xmlns="http://www.w3.org/2000/svg" font-family="sans-serif">
  <rect width="920" height="820" fill="#fafafa"/>

  <text x="20" y="32" font-size="20" font-weight="bold" fill="#1f2937">
    MXFP8 scale layout: compact vs gemm-swizzled, expressed as cute layouts
  </text>
  <text x="20" y="56" font-size="12" fill="#4b5563">
    Toy 8×4 tile, group size G=4. Real: 128×4 tile, G=32. Both layouts share the same hierarchical
  </text>
  <text x="20" y="74" font-size="12" fill="#4b5563">
    shape — only the row strides differ. Group A (yellow) = rows 0–3, Group B (blue) = rows 4–7.
  </text>

  <!-- ============================================================== -->
  <!-- 1. Logical view + Layout expressions -->
  <!-- ============================================================== -->
  <text x="20" y="116" font-size="14" font-weight="bold" fill="#1f2937">1. Logical scale tensor</text>

  <g transform="translate(80, 138)">
    <g font-family="monospace" font-size="10" text-anchor="middle" fill="#6b7280">
      <text x="14" y="-4">j=0</text><text x="42" y="-4">j=1</text>
      <text x="70" y="-4">j=2</text><text x="98" y="-4">j=3</text>
    </g>

    <rect x="0" y="0"   width="112" height="112" fill="#fde68a" stroke="#92400e" stroke-width="1.2"/>
    <rect x="0" y="112" width="112" height="112" fill="#bfdbfe" stroke="#1e40af" stroke-width="1.2"/>

    <g font-family="monospace" font-size="10" text-anchor="end" fill="#6b7280">
      <text x="-6" y="18">i=0</text><text x="-6" y="46">i=1</text>
      <text x="-6" y="74">i=2</text><text x="-6" y="102">i=3</text>
      <text x="-6" y="130">i=4</text><text x="-6" y="158">i=5</text>
      <text x="-6" y="186">i=6</text><text x="-6" y="214">i=7</text>
    </g>

    <g stroke="#374151" stroke-width="0.5">
      <line x1="28" y1="0" x2="28" y2="224"/><line x1="56" y1="0" x2="56" y2="224"/>
      <line x1="84" y1="0" x2="84" y2="224"/>
      <line x1="0" y1="28" x2="112" y2="28"/><line x1="0" y1="56" x2="112" y2="56"/>
      <line x1="0" y1="84" x2="112" y2="84"/><line x1="0" y1="140" x2="112" y2="140"/>
      <line x1="0" y1="168" x2="112" y2="168"/><line x1="0" y1="196" x2="112" y2="196"/>
    </g>

    <g font-family="monospace" font-size="9" text-anchor="middle" fill="#1f2937">
      <text x="14" y="18">s00</text><text x="42" y="18">s01</text><text x="70" y="18">s02</text><text x="98" y="18">s03</text>
      <text x="14" y="46">s10</text><text x="42" y="46">s11</text><text x="70" y="46">s12</text><text x="98" y="46">s13</text>
      <text x="14" y="74">s20</text><text x="42" y="74">s21</text><text x="70" y="74">s22</text><text x="98" y="74">s23</text>
      <text x="14" y="102">s30</text><text x="42" y="102">s31</text><text x="70" y="102">s32</text><text x="98" y="102">s33</text>
      <text x="14" y="130">s40</text><text x="42" y="130">s41</text><text x="70" y="130">s42</text><text x="98" y="130">s43</text>
      <text x="14" y="158">s50</text><text x="42" y="158">s51</text><text x="70" y="158">s52</text><text x="98" y="158">s53</text>
      <text x="14" y="186">s60</text><text x="42" y="186">s61</text><text x="70" y="186">s62</text><text x="98" y="186">s63</text>
      <text x="14" y="214">s70</text><text x="42" y="214">s71</text><text x="70" y="214">s72</text><text x="98" y="214">s73</text>
    </g>

    <text x="125" y="60" font-size="11" fill="#92400e" font-weight="bold">group A</text>
    <text x="125" y="180" font-size="11" fill="#1e40af" font-weight="bold">group B</text>
  </g>

  <!-- Layout expression panel, right of the grid -->
  <g transform="translate(280, 116)">
    <text x="0" y="0" font-size="14" font-weight="bold" fill="#1f2937">As cute layouts</text>

    <text x="0" y="24" font-family="monospace" font-size="12" fill="#374151">
      Row decomposition (toy, G=4):  i = i_hi · 4 + i_lo
    </text>
    <text x="0" y="42" font-family="monospace" font-size="11" fill="#6b7280">
      i_lo ∈ {0,1,2,3}  (row within group)    i_hi ∈ {0,1}  (group index)
    </text>

    <!-- Compact layout box -->
    <rect x="0" y="60" width="610" height="80" fill="#fef3c7" stroke="#92400e" stroke-width="1"/>
    <text x="12" y="80" font-size="13" font-weight="bold" fill="#7c2d12">Compact (row-major)</text>
    <text x="12" y="106" font-family="monospace" font-size="13" fill="#1f2937">
      Layout  ((<tspan fill="#b45309" font-weight="bold">4</tspan>, <tspan fill="#b45309" font-weight="bold">2</tspan>), <tspan fill="#1d4ed8" font-weight="bold">4</tspan>) : ((<tspan fill="#b45309" font-weight="bold">4</tspan>, <tspan fill="#b45309" font-weight="bold">16</tspan>), <tspan fill="#1d4ed8" font-weight="bold">1</tspan>)
    </text>
    <text x="12" y="128" font-family="monospace" font-size="10" fill="#6b7280">
      shape  : ((i_lo, i_hi), j)        stride : (( 1·cols , 4·cols ), 1)
    </text>

    <!-- Swizzled layout box -->
    <rect x="0" y="156" width="610" height="80" fill="#dbeafe" stroke="#1e40af" stroke-width="1"/>
    <text x="12" y="176" font-size="13" font-weight="bold" fill="#1e3a8a">Swizzled (gemm-friendly)</text>
    <text x="12" y="202" font-family="monospace" font-size="13" fill="#1f2937">
      Layout  ((<tspan fill="#b45309" font-weight="bold">4</tspan>, <tspan fill="#b45309" font-weight="bold">2</tspan>), <tspan fill="#1d4ed8" font-weight="bold">4</tspan>) : ((<tspan fill="#b45309" font-weight="bold">8</tspan>, <tspan fill="#b45309" font-weight="bold">4</tspan>), <tspan fill="#1d4ed8" font-weight="bold">1</tspan>)
    </text>
    <text x="12" y="224" font-family="monospace" font-size="10" fill="#6b7280">
      shape  : ((i_lo, i_hi), j)        stride : (( 2·G   , G    ), 1)
    </text>

    <text x="0" y="262" font-family="monospace" font-size="11" fill="#374151">
      Same shape; only the (i_lo, i_hi) strides swap roles.
    </text>
    <text x="0" y="280" font-family="monospace" font-size="11" fill="#374151">
      Real (G=32):  swizzled stride = ((16, 4), 1).  Plus tile-major outer dims.
    </text>
  </g>

  <!-- ============================================================== -->
  <!-- 2. Compact byte stream -->
  <!-- ============================================================== -->
  <text x="20" y="430" font-size="14" font-weight="bold" fill="#1f2937">
    2. Compact byte stream — strides ((4, 16), 1)
  </text>
  <text x="20" y="448" font-family="monospace" font-size="11" fill="#6b7280">
    i_lo · 4 + i_hi · 16 + j  →  group A in bytes 0–15, group B in bytes 16–31.
  </text>

  <g transform="translate(50, 462)">
    <g font-family="monospace" font-size="9" text-anchor="middle" fill="#6b7280">
      <text x="12.5" y="-4">0</text><text x="37.5" y="-4">1</text><text x="62.5" y="-4">2</text><text x="87.5" y="-4">3</text>
      <text x="112.5" y="-4">4</text><text x="137.5" y="-4">5</text><text x="162.5" y="-4">6</text><text x="187.5" y="-4">7</text>
      <text x="212.5" y="-4">8</text><text x="237.5" y="-4">9</text><text x="262.5" y="-4">10</text><text x="287.5" y="-4">11</text>
      <text x="312.5" y="-4">12</text><text x="337.5" y="-4">13</text><text x="362.5" y="-4">14</text><text x="387.5" y="-4">15</text>
      <text x="412.5" y="-4">16</text><text x="437.5" y="-4">17</text><text x="462.5" y="-4">18</text><text x="487.5" y="-4">19</text>
      <text x="512.5" y="-4">20</text><text x="537.5" y="-4">21</text><text x="562.5" y="-4">22</text><text x="587.5" y="-4">23</text>
      <text x="612.5" y="-4">24</text><text x="637.5" y="-4">25</text><text x="662.5" y="-4">26</text><text x="687.5" y="-4">27</text>
      <text x="712.5" y="-4">28</text><text x="737.5" y="-4">29</text><text x="762.5" y="-4">30</text><text x="787.5" y="-4">31</text>
    </g>

    <rect x="0" y="0" width="400" height="40" fill="#fde68a" stroke="#92400e" stroke-width="0.8"/>
    <rect x="400" y="0" width="400" height="40" fill="#bfdbfe" stroke="#1e40af" stroke-width="0.8"/>

    <g stroke="#374151" stroke-width="0.4">
      <line x1="25" y1="0" x2="25" y2="40"/><line x1="50" y1="0" x2="50" y2="40"/>
      <line x1="75" y1="0" x2="75" y2="40"/><line x1="100" y1="0" x2="100" y2="40" stroke-width="1.2"/>
      <line x1="125" y1="0" x2="125" y2="40"/><line x1="150" y1="0" x2="150" y2="40"/>
      <line x1="175" y1="0" x2="175" y2="40"/><line x1="200" y1="0" x2="200" y2="40" stroke-width="1.2"/>
      <line x1="225" y1="0" x2="225" y2="40"/><line x1="250" y1="0" x2="250" y2="40"/>
      <line x1="275" y1="0" x2="275" y2="40"/><line x1="300" y1="0" x2="300" y2="40" stroke-width="1.2"/>
      <line x1="325" y1="0" x2="325" y2="40"/><line x1="350" y1="0" x2="350" y2="40"/>
      <line x1="375" y1="0" x2="375" y2="40"/><line x1="400" y1="0" x2="400" y2="40" stroke-width="1.2"/>
      <line x1="425" y1="0" x2="425" y2="40"/><line x1="450" y1="0" x2="450" y2="40"/>
      <line x1="475" y1="0" x2="475" y2="40"/><line x1="500" y1="0" x2="500" y2="40" stroke-width="1.2"/>
      <line x1="525" y1="0" x2="525" y2="40"/><line x1="550" y1="0" x2="550" y2="40"/>
      <line x1="575" y1="0" x2="575" y2="40"/><line x1="600" y1="0" x2="600" y2="40" stroke-width="1.2"/>
      <line x1="625" y1="0" x2="625" y2="40"/><line x1="650" y1="0" x2="650" y2="40"/>
      <line x1="675" y1="0" x2="675" y2="40"/><line x1="700" y1="0" x2="700" y2="40" stroke-width="1.2"/>
      <line x1="725" y1="0" x2="725" y2="40"/><line x1="750" y1="0" x2="750" y2="40"/>
      <line x1="775" y1="0" x2="775" y2="40"/>
    </g>

    <g font-family="monospace" font-size="10" text-anchor="middle" fill="#1f2937">
      <text x="12.5" y="25">s00</text><text x="37.5" y="25">s01</text><text x="62.5" y="25">s02</text><text x="87.5" y="25">s03</text>
      <text x="112.5" y="25">s10</text><text x="137.5" y="25">s11</text><text x="162.5" y="25">s12</text><text x="187.5" y="25">s13</text>
      <text x="212.5" y="25">s20</text><text x="237.5" y="25">s21</text><text x="262.5" y="25">s22</text><text x="287.5" y="25">s23</text>
      <text x="312.5" y="25">s30</text><text x="337.5" y="25">s31</text><text x="362.5" y="25">s32</text><text x="387.5" y="25">s33</text>
      <text x="412.5" y="25">s40</text><text x="437.5" y="25">s41</text><text x="462.5" y="25">s42</text><text x="487.5" y="25">s43</text>
      <text x="512.5" y="25">s50</text><text x="537.5" y="25">s51</text><text x="562.5" y="25">s52</text><text x="587.5" y="25">s53</text>
      <text x="612.5" y="25">s60</text><text x="637.5" y="25">s61</text><text x="662.5" y="25">s62</text><text x="687.5" y="25">s63</text>
      <text x="712.5" y="25">s70</text><text x="737.5" y="25">s71</text><text x="762.5" y="25">s72</text><text x="787.5" y="25">s73</text>
    </g>
  </g>

  <!-- ============================================================== -->
  <!-- 3. Swizzled byte stream -->
  <!-- ============================================================== -->
  <text x="20" y="570" font-size="14" font-weight="bold" fill="#1f2937">
    3. Swizzled byte stream — strides ((8, 4), 1)
  </text>
  <text x="20" y="588" font-family="monospace" font-size="11" fill="#6b7280">
    i_lo · 8 + i_hi · 4 + j  →  groups A and B interleave every 4 bytes (every i_hi step).
  </text>

  <g transform="translate(50, 602)">
    <g font-family="monospace" font-size="9" text-anchor="middle" fill="#6b7280">
      <text x="12.5" y="-4">0</text><text x="37.5" y="-4">1</text><text x="62.5" y="-4">2</text><text x="87.5" y="-4">3</text>
      <text x="112.5" y="-4">4</text><text x="137.5" y="-4">5</text><text x="162.5" y="-4">6</text><text x="187.5" y="-4">7</text>
      <text x="212.5" y="-4">8</text><text x="237.5" y="-4">9</text><text x="262.5" y="-4">10</text><text x="287.5" y="-4">11</text>
      <text x="312.5" y="-4">12</text><text x="337.5" y="-4">13</text><text x="362.5" y="-4">14</text><text x="387.5" y="-4">15</text>
      <text x="412.5" y="-4">16</text><text x="437.5" y="-4">17</text><text x="462.5" y="-4">18</text><text x="487.5" y="-4">19</text>
      <text x="512.5" y="-4">20</text><text x="537.5" y="-4">21</text><text x="562.5" y="-4">22</text><text x="587.5" y="-4">23</text>
      <text x="612.5" y="-4">24</text><text x="637.5" y="-4">25</text><text x="662.5" y="-4">26</text><text x="687.5" y="-4">27</text>
      <text x="712.5" y="-4">28</text><text x="737.5" y="-4">29</text><text x="762.5" y="-4">30</text><text x="787.5" y="-4">31</text>
    </g>

    <g stroke-width="0.8">
      <rect x="0"   y="0" width="100" height="40" fill="#fde68a" stroke="#92400e"/>
      <rect x="100" y="0" width="100" height="40" fill="#bfdbfe" stroke="#1e40af"/>
      <rect x="200" y="0" width="100" height="40" fill="#fde68a" stroke="#92400e"/>
      <rect x="300" y="0" width="100" height="40" fill="#bfdbfe" stroke="#1e40af"/>
      <rect x="400" y="0" width="100" height="40" fill="#fde68a" stroke="#92400e"/>
      <rect x="500" y="0" width="100" height="40" fill="#bfdbfe" stroke="#1e40af"/>
      <rect x="600" y="0" width="100" height="40" fill="#fde68a" stroke="#92400e"/>
      <rect x="700" y="0" width="100" height="40" fill="#bfdbfe" stroke="#1e40af"/>
    </g>

    <g stroke="#374151" stroke-width="0.4">
      <line x1="25" y1="0" x2="25" y2="40"/><line x1="50" y1="0" x2="50" y2="40"/>
      <line x1="75" y1="0" x2="75" y2="40"/><line x1="100" y1="0" x2="100" y2="40" stroke-width="1.2"/>
      <line x1="125" y1="0" x2="125" y2="40"/><line x1="150" y1="0" x2="150" y2="40"/>
      <line x1="175" y1="0" x2="175" y2="40"/><line x1="200" y1="0" x2="200" y2="40" stroke-width="1.2"/>
      <line x1="225" y1="0" x2="225" y2="40"/><line x1="250" y1="0" x2="250" y2="40"/>
      <line x1="275" y1="0" x2="275" y2="40"/><line x1="300" y1="0" x2="300" y2="40" stroke-width="1.2"/>
      <line x1="325" y1="0" x2="325" y2="40"/><line x1="350" y1="0" x2="350" y2="40"/>
      <line x1="375" y1="0" x2="375" y2="40"/><line x1="400" y1="0" x2="400" y2="40" stroke-width="1.2"/>
      <line x1="425" y1="0" x2="425" y2="40"/><line x1="450" y1="0" x2="450" y2="40"/>
      <line x1="475" y1="0" x2="475" y2="40"/><line x1="500" y1="0" x2="500" y2="40" stroke-width="1.2"/>
      <line x1="525" y1="0" x2="525" y2="40"/><line x1="550" y1="0" x2="550" y2="40"/>
      <line x1="575" y1="0" x2="575" y2="40"/><line x1="600" y1="0" x2="600" y2="40" stroke-width="1.2"/>
      <line x1="625" y1="0" x2="625" y2="40"/><line x1="650" y1="0" x2="650" y2="40"/>
      <line x1="675" y1="0" x2="675" y2="40"/><line x1="700" y1="0" x2="700" y2="40" stroke-width="1.2"/>
      <line x1="725" y1="0" x2="725" y2="40"/><line x1="750" y1="0" x2="750" y2="40"/>
      <line x1="775" y1="0" x2="775" y2="40"/>
    </g>

    <g font-family="monospace" font-size="10" text-anchor="middle" fill="#1f2937">
      <text x="12.5" y="25">s00</text><text x="37.5" y="25">s01</text><text x="62.5" y="25">s02</text><text x="87.5" y="25">s03</text>
      <text x="112.5" y="25">s40</text><text x="137.5" y="25">s41</text><text x="162.5" y="25">s42</text><text x="187.5" y="25">s43</text>
      <text x="212.5" y="25">s10</text><text x="237.5" y="25">s11</text><text x="262.5" y="25">s12</text><text x="287.5" y="25">s13</text>
      <text x="312.5" y="25">s50</text><text x="337.5" y="25">s51</text><text x="362.5" y="25">s52</text><text x="387.5" y="25">s53</text>
      <text x="412.5" y="25">s20</text><text x="437.5" y="25">s21</text><text x="462.5" y="25">s22</text><text x="487.5" y="25">s23</text>
      <text x="512.5" y="25">s60</text><text x="537.5" y="25">s61</text><text x="562.5" y="25">s62</text><text x="587.5" y="25">s63</text>
      <text x="612.5" y="25">s30</text><text x="637.5" y="25">s31</text><text x="662.5" y="25">s32</text><text x="687.5" y="25">s33</text>
      <text x="712.5" y="25">s70</text><text x="737.5" y="25">s71</text><text x="762.5" y="25">s72</text><text x="787.5" y="25">s73</text>
    </g>
  </g>

  <!-- ============================================================== -->
  <!-- Footer -->
  <!-- ============================================================== -->
  <text x="20" y="710" font-size="13" font-weight="bold" fill="#1f2937">In code:</text>
  <text x="20" y="730" font-family="monospace" font-size="11" fill="#374151">
    Replaces the manual gemm_swizzled_scale_idx() arithmetic with a tensor whose layout encodes the swizzle:
  </text>
  <text x="20" y="750" font-family="monospace" font-size="11" fill="#1d4ed8">
    mS_row = cute.make_tensor(scale_ptr,
  </text>
  <text x="20" y="768" font-family="monospace" font-size="11" fill="#1d4ed8">
    &#160;&#160;&#160;&#160;cute.make_layout(((G, M_tile/G, num_tiles_Y), (4, num_tiles_X)),
  </text>
  <text x="20" y="786" font-family="monospace" font-size="11" fill="#1d4ed8">
    &#160;&#160;&#160;&#160;&#160;&#160;&#160;&#160;&#160;&#160;&#160;&#160;&#160;&#160;&#160;&#160;stride=((16, 4, 512*num_tiles_X), (1, 512))))
  </text>
  <text x="20" y="804" font-family="monospace" font-size="11" fill="#374151">
    Then mS_row[i, j] = … just works — natural 2D access, no per-write index math.
  </text>
</svg>
